<svg height='100px' width='100px'  fill="#5969f6" xmlns="http://www.w3.org/2000/svg" viewBox="0 0 64 64" x="0px" y="0px"><g><path d="M56,7H51V4H49V7H45V4H43V7H39V4H37V7H33V4H31V7H27V4H25V7H21V4H19V7H15V4H13V7H8A1,1,0,0,0,7,8V56a1,1,0,0,0,1,1H56a1,1,0,0,0,1-1V8A1,1,0,0,0,56,7ZM13,9v3h2V9h4v3h2V9h4v3h2V9h4v3h2V9h4v3h2V9h4v3h2V9h4v3h2V9h4v7H9V9ZM9,55V18H55V55Z"></path><path d="M50,22H14a1,1,0,0,0-1,1V51a1,1,0,0,0,1,1H50a1,1,0,0,0,1-1V23A1,1,0,0,0,50,22Zm-1,7H45V24h4ZM31,38v5H27V38Zm-4-2V31h4v5Zm6,2h4v5H33Zm0-2V31h4v5Zm6-5h4v5H39Zm0-2V24h4v5Zm-2,0H33V24h4Zm-6,0H27V24h4Zm-6,0H21V24h4Zm0,2v5H21V31Zm-6,5H15V31h4Zm0,2v5H15V38Zm2,0h4v5H21Zm4,7v5H21V45Zm2,0h4v5H27Zm6,0h4v5H33Zm6,0h4v5H39Zm0-2V38h4v5Zm6-5h4v5H45Zm0-2V31h4v5ZM19,24v5H15V24ZM15,45h4v5H15Zm30,5V45h4v5Z"></path></g></svg>