<svg height='100px' width='100px'  fill="#5969f6" xmlns="http://www.w3.org/2000/svg" viewBox="0 0 64 64" x="0px" y="0px"><title>chart-Pie chart-Line chart-statistics-financial-presentation-finances-business</title><g><path d="M42,22a20,20,0,0,0-8,1.68V3a1,1,0,0,0-1-1H23a1,1,0,0,0-1,1V7H13a1,1,0,0,0-1,1v5H3a1,1,0,0,0-1,1V42a1,1,0,0,0,1,1H22.05A20,20,0,1,0,42,22ZM60,41H43V24.05A18,18,0,0,1,60,41ZM24,4h8V24.71a20,20,0,0,0-8,8.63ZM4,15h8V41H4ZM14,9h8V41H14ZM42,60a18,18,0,0,1-1-35.95V42a1,1,0,0,0,1,1H60A18,18,0,0,1,42,60Z"></path><path d="M42,15.41l3.29,3.3a1,1,0,0,0,1.42,0L54,11.41V16h2V9h0a.83.83,0,0,0-.07-.38A1,1,0,0,0,55,8H48v2h4.59L46,16.59l-3.29-3.3a1,1,0,0,0-1.42,0l-5,5,1.42,1.42Z"></path><rect x="4" y="47" width="16" height="2"></rect><rect x="4" y="51" width="16" height="2"></rect><rect x="4" y="55" width="16" height="2"></rect></g></svg>