<svg height='100px' width='100px'  fill="#5969f6" xmlns="http://www.w3.org/2000/svg" data-name="Layer 1" viewBox="0 0 64 64" x="0px" y="0px"><title>Business &amp;amp; office 3</title><path d="M46.9,9.88H43.67V9.05A3.68,3.68,0,0,0,40,5.37H36.37c0-.1,0-.2,0-.3a4.38,4.38,0,0,0-8.75,0c0,.1,0,.2,0,.3H24a3.68,3.68,0,0,0-3.68,3.68v.83H17.1a6,6,0,0,0-6,6V57.33a6,6,0,0,0,6,6H46.9a6,6,0,0,0,6-6V15.85A6,6,0,0,0,46.9,9.88Zm3.22,47.45a3.22,3.22,0,0,1-3.22,3.22H17.1a3.22,3.22,0,0,1-3.22-3.22V15.85a3.22,3.22,0,0,1,3.22-3.22h3.23v2H43.67v-2H46.9a3.22,3.22,0,0,1,3.22,3.22Z"></path><path d="M21.35,48.7a3.87,3.87,0,1,1,3.87-3.87A3.87,3.87,0,0,1,21.35,48.7Zm0-6.36a2.5,2.5,0,1,0,2.5,2.5A2.5,2.5,0,0,0,21.35,42.34Z"></path><path d="M25.16,23.25,23.71,24.7a2.5,2.5,0,1,1-3.51-3,2.54,2.54,0,0,1,2.52.14l1-1a3.86,3.86,0,1,0,1.45,2.42Z"></path><polygon points="27.3 20.14 21.89 25.55 19.6 23.25 20.57 22.28 21.89 23.61 26.34 19.17 27.3 20.14"></polygon><path d="M25.16,33.69l-1.45,1.45a2.5,2.5,0,0,1-4.86-.8,2.5,2.5,0,0,1,3.88-2.08l1-1a3.86,3.86,0,1,0,1.45,2.42Z"></path><polygon points="27.3 30.58 21.89 35.99 19.6 33.69 20.57 32.72 21.89 34.05 26.34 29.61 27.3 30.58"></polygon><rect x="28" y="23.03" width="18.52" height="1.74"></rect><rect x="28" y="33.47" width="18.52" height="1.74"></rect><rect x="28" y="43.97" width="18.52" height="1.74"></rect></svg>