<svg height='100px' width='100px'  fill="#5969f6" xmlns="http://www.w3.org/2000/svg" xmlns:xlink="http://www.w3.org/1999/xlink" version="1.1" x="0px" y="0px" viewBox="0 0 160 160" style="enable-background:new 0 0 160 160;" xml:space="preserve"><path d="M55.665,46.777c3.054,7.96,7.655,15.039,14.581,18.416c-0.272,4.066-1.226,8.224-2.689,10  c-4.182,0.064-7.565,3.481-7.565,7.678v7.024c0,1.933,1.567,3.5,3.5,3.5h32.771c1.933,0,3.5-1.567,3.5-3.5V82.87  c0-4.196-3.384-7.613-7.565-7.678c-1.495-1.814-2.461-6.116-2.708-10.265c6.58-3.443,11.007-10.278,13.983-17.958  c0.08-0.013,0.159-0.009,0.238-0.028c16.07-3.86,20.368-16.575,21.5-23.812c0.368-2.357-0.312-4.75-1.864-6.563  c-1.558-1.82-3.826-2.864-6.223-2.864h-7.647c-0.133-2.079-0.97-4.047-2.372-5.509c-1.479-1.543-3.437-2.393-5.511-2.393H79.607  H57.618c-2.074,0-4.031,0.85-5.511,2.393c-1.402,1.462-2.239,3.431-2.372,5.509h-6.859c-2.397,0-4.666,1.044-6.224,2.864  c-1.552,1.814-2.231,4.207-1.863,6.563C35.905,30.269,40.113,42.739,55.665,46.777z M92.763,86.395H66.992V82.87  c0-0.377,0.307-0.684,0.684-0.684H92.08c0.377,0,0.684,0.307,0.684,0.684V86.395z M84.374,75.187h-8.993  c0.997-2.685,1.492-5.606,1.729-8.033c0.809,0.087,1.64,0.135,2.497,0.135c1.048,0,2.055-0.074,3.031-0.203  C82.873,69.526,83.368,72.476,84.374,75.187z M118.03,21.117c0.13,0.152,0.337,0.475,0.266,0.931  c-0.919,5.877-3.837,13.183-12.229,16.776c1.693-6.542,2.571-13.054,3.024-18.122h8.034  C117.602,20.702,117.897,20.962,118.03,21.117z M57.16,13.037c0.151-0.157,0.305-0.237,0.458-0.237h21.989h21.988  c0.153,0,0.308,0.08,0.458,0.237c0.3,0.313,0.466,0.812,0.443,1.335c-0.321,7.667-2.936,45.917-22.89,45.917  c-19.954,0-22.569-38.249-22.891-45.917C56.694,13.849,56.86,13.35,57.16,13.037z M41.971,21.118  c0.133-0.155,0.427-0.416,0.905-0.416h7.247c0.444,4.957,1.295,11.296,2.916,17.694c-7.693-3.719-10.45-10.689-11.334-16.347  C41.634,21.592,41.841,21.269,41.971,21.118z"></path><path d="M71.102,40.013c-0.161,0.938,0.225,1.886,0.994,2.445c0.77,0.56,1.793,0.634,2.633,0.19l5.378-2.827l5.378,2.827  c0.365,0.192,0.765,0.287,1.163,0.287c0.518,0,1.034-0.161,1.47-0.478c0.77-0.559,1.155-1.507,0.994-2.445l-1.026-5.989l4.35-4.241  c0.682-0.664,0.927-1.658,0.633-2.563c-0.294-0.905-1.076-1.564-2.019-1.702l-6.012-0.874l-2.688-5.448  c-0.422-0.854-1.291-1.394-2.242-1.394s-1.82,0.54-2.242,1.394l-2.688,5.448l-6.013,0.874c-0.942,0.137-1.725,0.796-2.019,1.702  c-0.294,0.905-0.049,1.898,0.633,2.563l4.351,4.241L71.102,40.013z M77.196,29.405c0.814-0.119,1.519-0.63,1.883-1.368l1.028-2.084  l1.028,2.084c0.364,0.738,1.068,1.249,1.883,1.368l2.3,0.334l-1.664,1.623c-0.589,0.574-0.858,1.402-0.719,2.212l0.393,2.292  l-2.058-1.082c-0.364-0.191-0.764-0.287-1.163-0.287s-0.799,0.096-1.163,0.287l-2.058,1.082l0.393-2.292  c0.14-0.811-0.13-1.638-0.719-2.212l-1.665-1.623L77.196,29.405z"></path><path d="M151.866,125.544h-44.41v-18.61c0-1.933-1.567-3.5-3.5-3.5H56.045c-1.933,0-3.5,1.567-3.5,3.5v18.61H8.134  c-1.933,0-3.5,1.567-3.5,3.5V150.7c0,1.933,1.567,3.5,3.5,3.5h47.911h47.911h47.91c1.933,0,3.5-1.567,3.5-3.5v-21.656  C155.366,127.111,153.798,125.544,151.866,125.544z M11.634,132.544h40.911V147.2H11.634V132.544z M59.545,129.044v-18.61h40.911  v18.61V147.2H59.545V129.044z M148.366,147.2h-40.91v-14.656h40.91V147.2z"></path></svg>