<svg height='100px' width='100px'  fill="#5969f6" xmlns="http://www.w3.org/2000/svg" viewBox="0 0 64 64" x="0px" y="0px"><g><path d="M42,44V42.4a10.932,10.932,0,0,1,3.256-7.8A18.824,18.824,0,0,0,51,21,19,19,0,1,0,18.859,34.7,10.645,10.645,0,0,1,22,42.4V44a3.99,3.99,0,0,0-1.313,7.761A4,4,0,0,0,24,58h1.1A5.009,5.009,0,0,0,30,62h4a5.009,5.009,0,0,0,4.9-4H40a4,4,0,0,0,3.312-6.239A3.99,3.99,0,0,0,42,44ZM20.242,33.258a16.954,16.954,0,0,1-5.188-13.62,17.164,17.164,0,0,1,15-15.53,16.99,16.99,0,0,1,13.8,29.051A12.941,12.941,0,0,0,40,42.4V44H24V42.4A12.654,12.654,0,0,0,20.242,33.258ZM34,60H30a3,3,0,0,1-2.816-2h9.632A3,3,0,0,1,34,60Zm6-4H24a2,2,0,0,1,0-4H40a2,2,0,0,1,0,4Zm2-6H22a2,2,0,0,1,0-4H42a2,2,0,0,1,0,4Z"></path><rect x="53" y="20" width="4" height="2"></rect><rect x="49.919" y="8.5" width="4" height="2" transform="translate(2.204 27.227) rotate(-29.995)"></rect><rect x="11.081" y="7.5" width="2" height="4" transform="translate(-2.187 15.213) rotate(-59.998)"></rect><rect x="7" y="20" width="4" height="2"></rect><rect x="10.082" y="31.5" width="4" height="2" transform="translate(-14.629 10.392) rotate(-29.995)"></rect><rect x="50.918" y="30.5" width="2" height="4" transform="translate(-2.187 61.211) rotate(-59.998)"></rect><path d="M27.9,30.447l.52-1.041.637,1.91A1,1,0,0,0,30,32h4a1,1,0,0,0,.948-.684l.637-1.91.52,1.041A1,1,0,0,0,37,31h3.557a2,2,0,0,0,1.873-2.7l-2.007-5.35A3.011,3.011,0,0,0,38,21.03V15.185a4.937,4.937,0,0,0-.861-2.806C34.143,8,32.53,8,32,8s-2.143,0-5.138,4.378A4.935,4.935,0,0,0,26,15.185V21.03a3.012,3.012,0,0,0-2.423,1.917L21.57,28.3A2,2,0,0,0,23.443,31H27A1,1,0,0,0,27.9,30.447ZM30.721,30l-.334-1h3.226l-.334,1Zm7.829-6.351L40.557,29H37.618l-.087-.174A.982.982,0,0,0,38,28V23.089A.993.993,0,0,1,38.55,23.649ZM28,15.185a2.95,2.95,0,0,1,.512-1.677C30.41,10.733,31.624,10,32,10s1.59.733,3.489,3.509A2.951,2.951,0,0,1,36,15.185V27H33V21H31v6H28ZM23.443,29l2.007-5.352a.994.994,0,0,1,.55-.559V28a.982.982,0,0,0,.469.826L26.382,29Z"></path><path d="M32,18a3,3,0,1,0-3-3A3,3,0,0,0,32,18Zm0-4a1,1,0,1,1-1,1A1,1,0,0,1,32,14Z"></path><rect x="31" y="36" width="2" height="6"></rect><rect x="35" y="34" width="2" height="6"></rect><rect x="27" y="34" width="2" height="6"></rect></g></svg>