<svg height='100px' width='100px'  fill="#5969f6" xmlns:dc="http://purl.org/dc/elements/1.1/" xmlns:cc="http://creativecommons.org/ns#" xmlns:rdf="http://www.w3.org/1999/02/22-rdf-syntax-ns#" xmlns:svg="http://www.w3.org/2000/svg" xmlns="http://www.w3.org/2000/svg" xmlns:sodipodi="http://sodipodi.sourceforge.net/DTD/sodipodi-0.dtd" xmlns:inkscape="http://www.inkscape.org/namespaces/inkscape" version="1.1" x="0px" y="0px" viewBox="0 0 100 100"><g transform="translate(0,-952.36218)"><path style="text-indent:0;text-transform:none;direction:ltr;block-progression:tb;baseline-shift:baseline;color:#000000;enable-background:accumulate;" d="m 50.004199,962.39069 c -7.70907,0 -14.0014,6.28946 -14.0014,13.99501 0,7.70555 6.29233,13.99501 14.0014,13.99501 7.709069,0 14.0014,-6.28946 14.0014,-13.99501 0,-7.70555 -6.292331,-13.99501 -14.0014,-13.99501 z m 0,3.99857 c 5.54709,0 10.001,4.45188 10.001,9.99644 0,5.54456 -4.45391,9.99644 -10.001,9.99644 -5.547091,0 -10.001,-4.45188 -10.001,-9.99644 0,-5.54456 4.453909,-9.99644 10.001,-9.99644 z m 0,27.99003 c -10.956781,0 -20.37041,7.64451 -22.814781,17.96231 -4.726542,1.2534 -8.72377,3.6351 -11.626162,6.6226 a 2.0003999,1.9994874 0 0 0 -0.437544,0.7498 l -7.0006999,19.9929 a 2.0003999,1.9994874 0 0 0 3.5316029,1.8118 c 3.178879,-4.5665 10.437807,-8.1533 18.345584,-8.1533 7.962388,0 15.177214,3.5165 18.345584,8.1221 a 2.0003999,1.9994874 0 0 0 3.312832,0 c 3.16837,-4.6056 10.383196,-8.1221 18.345584,-8.1221 7.907777,0 15.166705,3.5868 18.345584,8.1533 a 2.0003999,1.9994874 0 0 0 3.531603,-1.8118 l -7.0007,-19.9929 a 2.0003999,1.9994874 0 0 0 -0.437544,-0.7498 c -2.902392,-2.9875 -6.89962,-5.3692 -11.626162,-6.6226 -2.444371,-10.3178 -11.858,-17.96231 -22.814781,-17.96231 z m 0,3.99857 c 8.469438,0 15.8097,5.55304 18.40809,13.18284 -1.022413,-0.1066 -2.056085,-0.1874 -3.125312,-0.1874 -5.782872,0 -11.172755,1.9999 -15.282778,4.6545 -4.110023,-2.6546 -9.499906,-4.6545 -15.282778,-4.6545 -1.069227,0 -2.102899,0.081 -3.125312,0.1874 2.59839,-7.6298 9.938652,-13.18284 18.40809,-13.18284 z m -15.282778,16.99394 c 4.89981,0 9.774847,1.7809 13.282578,4.0611 l 0,16.1192 c -4.526177,-3.8434 -10.979151,-6.1853 -18.0018,-6.1853 -5.839297,0 -11.261267,1.7292 -15.595309,4.4671 l 4.281678,-12.2768 c 3.554142,-3.5283 9.196928,-6.1853 16.032853,-6.1853 z m 30.565556,0 c 6.835925,0 12.478711,2.657 16.032853,6.1853 l 4.281678,12.2768 c -4.334042,-2.7379 -9.756013,-4.4671 -15.595309,-4.4671 -7.022649,0 -13.475624,2.3419 -18.0018,6.1853 l 0,-16.1192 c 3.507731,-2.2802 8.382768,-4.0611 13.282578,-4.0611 z" fill="#5969f6" fill-opacity="1" stroke="none" marker="none" visibility="visible" display="inline" overflow="visible"></path></g></svg>