<svg height='100px' width='100px'  fill="#5969f6" xmlns="http://www.w3.org/2000/svg" viewBox="0 0 64 64" x="0px" y="0px"><g><path d="M50,30H35V17.411a8,8,0,1,0-6,0V30H14a1,1,0,0,0-1,1V61a1,1,0,0,0,1,1H50a1,1,0,0,0,1-1V31A1,1,0,0,0,50,30ZM30,43h4a1,1,0,0,0,1-1V38a5,5,0,1,1-6,0v4A1,1,0,0,0,30,43ZM26,10a6,6,0,1,1,6,6A6.006,6.006,0,0,1,26,10Zm6,8a8.047,8.047,0,0,0,1-.069V41H31V17.931A8.047,8.047,0,0,0,32,18ZM15,32H29v3.7a7,7,0,1,0,6,0V32H49V52H15ZM49,60H15V54H49Z"></path><path d="M20,34a3,3,0,1,0,3,3A3,3,0,0,0,20,34Zm0,4a1,1,0,1,1,1-1A1,1,0,0,1,20,38Z"></path><path d="M36,10H34a2,2,0,0,1-2,2v2A4,4,0,0,0,36,10Z"></path></g></svg>