<svg height='100px' width='100px'  fill="#5969f6" xmlns="http://www.w3.org/2000/svg" xmlns:xlink="http://www.w3.org/1999/xlink" version="1.1" x="0px" y="0px" viewBox="0 0 64 64" style="enable-background:new 0 0 64 64;" xml:space="preserve"><g><path d="M60,7h-1V5c0-2.206-1.794-4-4-4s-4,1.794-4,4v2h-2.142c-0.447-1.72-2-3-3.858-3s-3.411,1.28-3.858,3H22.858   c-0.447-1.72-2-3-3.858-3s-3.411,1.28-3.858,3H13V5c0-2.206-1.794-4-4-4S5,2.794,5,5v2H4c-1.654,0-3,1.346-3,3s1.346,3,3,3h1v2   c0,2.206,1.794,4,4,4s4-1.794,4-4v-2h2.142c0.364,1.399,1.459,2.494,2.858,2.858V18c0,2.071,0.458,4.051,1.324,5.906   c-0.139,0.443-0.239,0.904-0.288,1.38C16.074,26.143,14,28.848,14,32c0,1.163,0.295,2.282,0.836,3.291C13.7,36.536,13,38.186,13,40   c0,3.544,2.649,6.473,6.069,6.931c0.414,3.092,2.849,5.545,5.931,5.989v4.222c-1.72,0.447-3,2-3,3.858v2h8v-2   c0-1.858-1.28-3.411-3-3.858v-4.217c2.12-0.305,3.938-1.56,5-3.322c1.062,1.762,2.88,3.017,5,3.322v4.217c-1.72,0.447-3,2-3,3.858   v2h8v-2c0-1.858-1.28-3.411-3-3.858v-4.221c3.155-0.454,5.639-3.012,5.964-6.207C47.926,45.857,50,43.152,50,40   c0-1.163-0.295-2.282-0.836-3.291C50.3,35.464,51,33.814,51,32c0-3.544-2.649-6.473-6.069-6.931   c-0.054-0.4-0.135-0.792-0.253-1.168C45.544,22.048,46,20.068,46,18v-2.142c1.399-0.364,2.494-1.459,2.858-2.858H51v2   c0,2.206,1.794,4,4,4s4-1.794,4-4v-2h1c1.654,0,3-1.346,3-3S61.654,7,60,7z M4,11c-0.551,0-1-0.449-1-1s0.449-1,1-1h1v2H4z M11,15   c0,1.103-0.897,2-2,2s-2-0.897-2-2V5c0-1.103,0.897-2,2-2s2,0.897,2,2V15z M13,9h2v2h-2V9z M41,11H23V9h18V11z M17,12V8   c0-1.103,0.897-2,2-2s2,0.897,2,2v4c0,1.103-0.897,2-2,2S17,13.103,17,12z M28,61h-4c0-1.103,0.897-2,2-2S28,59.897,28,61z M40,61   h-4c0-1.103,0.897-2,2-2S40,59.897,40,61z M49,32c0,2.757-2.243,5-5,5v2c1.307,0,2.526-0.366,3.574-0.992   C47.847,38.633,48,39.304,48,40c0,2.449-1.753,4.52-4.169,4.924L43,45.153V46c0,2.757-2.243,5-5,5s-5-2.243-5-5h-2   c0,2.757-2.243,5-5,5s-5-2.243-5-5s2.243-5,5-5v-2c-3.488,0-6.379,2.566-6.906,5.908C16.769,44.48,15,42.447,15,40   c0-2.757,2.243-5,5-5v-2c-1.307,0-2.526,0.366-3.574,0.992C16.153,33.367,16,32.696,16,32c0-2.449,1.753-4.52,4.169-4.924   L21,26.847V26c0-2.757,2.243-5,5-5s5,2.243,5,5h2c0-2.757,2.243-5,5-5s5,2.243,5,5s-2.243,5-5,5v2c3.488,0,6.379-2.566,6.906-5.908   C47.231,27.52,49,29.553,49,32z M38,19c-2.543,0-4.774,1.363-6,3.397C30.774,20.363,28.543,19,26,19   c-2.192,0-4.148,1.017-5.432,2.599C20.203,20.443,20,19.242,20,18v-2.142c1.399-0.364,2.494-1.459,2.858-2.858h18.284   c0.364,1.399,1.459,2.494,2.858,2.858V18c0,1.24-0.203,2.44-0.566,3.595C42.149,20.014,40.191,19,38,19z M47,12   c0,1.103-0.897,2-2,2s-2-0.897-2-2V8c0-1.103,0.897-2,2-2s2,0.897,2,2V12z M49,11V9h2v2H49z M57,15c0,1.103-0.897,2-2,2   s-2-0.897-2-2V5c0-1.103,0.897-2,2-2s2,0.897,2,2V15z M60,11h-1V9h1c0.551,0,1,0.449,1,1S60.551,11,60,11z"></path><path d="M23,46c0,1.654,1.346,3,3,3v-2c-0.551,0-1-0.449-1-1s0.449-1,1-1v-2C24.346,43,23,44.346,23,46z"></path><path d="M38,42v2c2.206,0,4-1.794,4-4h-2C40,41.103,39.103,42,38,42z"></path><path d="M37,35c0,1.103-0.897,2-2,2v2c2.206,0,4-1.794,4-4H37z"></path><path d="M30,42v2c2.206,0,4-1.794,4-4h-2C32,41.103,31.103,42,30,42z"></path><path d="M32,32c0-2.206-1.794-4-4-4v2c1.103,0,2,0.897,2,2H32z"></path><path d="M21,29v2c1.103,0,2,0.897,2,2h2C25,30.794,23.206,29,21,29z"></path><path d="M41,26c0-1.654-1.346-3-3-3v2c0.551,0,1,0.449,1,1s-0.449,1-1,1v2C39.654,29,41,27.654,41,26z"></path></g></svg>